<svg width="272" height="31" viewBox="0 0 272 31" fill="none" xmlns="http://www.w3.org/2000/svg" class="_Pzt9N"><path d="M13.5854 28.7621C20.9756 28.7621 26.9665 22.7712 26.9665 15.3811C26.9665 7.99091 20.9756 2 13.5854 2C6.19526 2 0.204346 7.99091 0.204346 15.3811C0.204346 22.7712 6.19526 28.7621 13.5854 28.7621Z" fill="white"></path><path fill-rule="evenodd" clip-rule="evenodd" d="M21.0407 20.0012C21.0407 20.6312 20.5157 21.138 19.8765 21.1014C19.2785 21.0695 18.8311 20.5353 18.8311 19.9373V17.0702C18.8311 16.7461 18.5663 16.4813 18.2421 16.4813H15.2746C14.9505 16.4813 14.6857 16.7461 14.6857 17.0702V20.6403C14.6857 21.2704 14.1607 21.7771 13.5215 21.7406C12.9235 21.7086 12.4761 21.1745 12.4761 20.5764V17.0657C12.4761 16.7415 12.2113 16.4767 11.8871 16.4767H8.91966C8.59552 16.4767 8.33073 16.7415 8.33073 17.0657V19.992C8.33073 20.6221 7.80571 21.1288 7.16656 21.0923C6.5685 21.0603 6.12109 20.5262 6.12109 19.9281V10.7518C6.12109 10.1217 6.64611 9.61498 7.28526 9.65151C7.88332 9.68346 8.33073 10.2176 8.33073 10.8157V13.6827C8.33073 14.0069 8.59552 14.2717 8.91966 14.2717H11.8871C12.2113 14.2717 12.4761 14.0069 12.4761 13.6827V10.1126C12.4761 9.48259 13.0011 8.97583 13.6402 9.01236C14.2383 9.04431 14.6857 9.57846 14.6857 10.1765V13.6873C14.6857 14.0114 14.9505 14.2762 15.2746 14.2762H18.2421C18.5663 14.2762 18.8311 14.0114 18.8311 13.6873V10.8202C18.8311 10.2222 19.2785 9.68803 19.8765 9.65607C20.5111 9.62411 21.0407 10.1309 21.0407 10.7563V19.9966V20.0012Z" fill="#E22446"></path><path d="M106.7 6.38721H105.052C104.727 6.38721 104.463 6.652 104.463 6.97614V17.1889C104.463 20.0011 105.672 21.1881 109.206 20.9188C109.516 20.8959 109.758 20.6403 109.758 20.3298V18.9191C109.758 18.5859 109.48 18.3256 109.151 18.3348C107.928 18.3667 107.289 18.2161 107.289 17.1934V12.2993H109.174C109.498 12.2993 109.763 12.0346 109.763 11.7104V10.1719C109.763 9.84775 109.498 9.58296 109.174 9.58296H107.289V6.9807C107.289 6.65656 107.024 6.39177 106.7 6.39177V6.38721Z" fill="white"></path><path d="M97.1033 9.47339C93.8847 9.47339 91.3281 11.9889 91.3281 15.2486C91.3281 18.5082 93.8893 21.0237 97.1033 21.0237C100.317 21.0237 102.901 18.5082 102.901 15.2486C102.901 11.9889 100.317 9.47339 97.1033 9.47339ZM97.1033 18.2708C95.4415 18.2708 94.1495 17.0245 94.1495 15.2531C94.1495 13.4818 95.4415 12.2354 97.1033 12.2354C98.7651 12.2354 100.08 13.4818 100.08 15.2531C100.08 17.0245 98.7879 18.2708 97.1033 18.2708Z" fill="white"></path><path d="M116.497 9.47339C113.278 9.47339 110.721 11.9889 110.721 15.2486C110.721 18.5082 113.283 21.0237 116.497 21.0237C119.711 21.0237 122.295 18.5082 122.295 15.2486C122.295 11.9889 119.711 9.47339 116.497 9.47339ZM116.497 18.2708C114.835 18.2708 113.543 17.0245 113.543 15.2531C113.543 13.4818 114.835 12.2354 116.497 12.2354C118.158 12.2354 119.473 13.4818 119.473 15.2531C119.473 17.0245 118.181 18.2708 116.497 18.2708Z" fill="white"></path><path d="M44.2633 16.2394C44.2633 17.3077 43.3457 18.1614 42.2546 18.0564C41.305 17.9651 40.611 17.1114 40.611 16.1572V10.1629C40.611 9.83877 40.3462 9.57397 40.0221 9.57397H38.2964C37.9723 9.57397 37.7075 9.83877 37.7075 10.1629V16.1572C37.7075 17.1114 37.0135 17.9605 36.0639 18.0564C34.9774 18.1614 34.0552 17.3077 34.0552 16.2394V10.1629C34.0552 9.83877 33.7904 9.57397 33.4662 9.57397H31.7405C31.4164 9.57397 31.1516 9.83877 31.1516 10.1629V16.0887C31.1516 18.5769 33.0143 20.75 35.4933 20.9463C36.9131 21.0604 38.2142 20.5354 39.1501 19.636C40.086 20.5354 41.3826 21.0604 42.807 20.9463C45.286 20.75 47.1486 18.5769 47.1486 16.0887V10.1629C47.1486 9.83877 46.8838 9.57397 46.5597 9.57397H44.834C44.5099 9.57397 44.2451 9.83877 44.2451 10.1629V16.2394H44.2633Z" fill="white"></path><path d="M85.7037 9.57847C84.2839 9.46433 82.9828 9.98935 82.0469 10.8887C81.111 9.98935 79.8144 9.46433 78.39 9.57847C75.911 9.77478 74.0483 11.9479 74.0483 14.436V20.3618C74.0483 20.686 74.3131 20.9508 74.6373 20.9508H76.363C76.6871 20.9508 76.9519 20.686 76.9519 20.3618V14.3675C76.9519 13.4134 77.6458 12.5642 78.5954 12.4683C79.682 12.3633 80.6042 13.2171 80.6042 14.2854V20.3618C80.6042 20.686 80.869 20.9508 81.1931 20.9508H82.9188C83.243 20.9508 83.5078 20.686 83.5078 20.3618V14.3675C83.5078 13.4134 84.2017 12.5642 85.1513 12.4683C86.2379 12.3633 87.1601 13.2171 87.1601 14.2854V20.3618C87.1601 20.686 87.4248 20.9508 87.749 20.9508H89.4747C89.7988 20.9508 90.0636 20.686 90.0636 20.3618V14.436C90.0636 11.9479 88.201 9.77478 85.722 9.57847H85.7037Z" fill="white"></path><path d="M134.019 12.8883C134.019 12.2993 134.589 11.9889 135.288 11.9889C135.859 11.9889 136.324 12.1943 136.671 12.5596C136.84 12.7376 137.132 12.8061 137.347 12.692L138.739 11.9478C139.077 11.7652 139.146 11.3224 138.894 11.0302C138.009 10.0167 136.731 9.47339 135.288 9.47339C133.033 9.47339 131.129 10.7197 131.129 12.9522C131.129 16.8054 136.776 15.9288 136.776 17.5267C136.776 18.1613 136.164 18.4671 135.265 18.4671C134.443 18.4671 133.822 18.1658 133.434 17.6363C133.27 17.4125 132.96 17.3167 132.713 17.4491L131.261 18.2252C130.955 18.3895 130.846 18.773 131.042 19.0606C131.914 20.3344 133.375 21.0237 135.265 21.0237C137.607 21.0237 139.661 19.887 139.661 17.5221C139.661 13.4955 134.014 14.5044 134.014 12.8837L134.019 12.8883Z" fill="white"></path><path d="M67.0493 9.47352C65.9627 9.47352 64.9583 9.76571 64.0955 10.2679V6.07233C64.0955 5.74819 63.8307 5.4834 63.5066 5.4834H61.8585C61.5343 5.4834 61.2695 5.74819 61.2695 6.07233V15.2852C61.2878 18.5266 63.8398 21.0239 67.0447 21.0239C70.2496 21.0239 72.8427 18.5084 72.8427 15.2487C72.8427 11.989 70.2587 9.47352 67.0447 9.47352H67.0493ZM67.0493 18.271C65.3875 18.271 64.1001 17.0292 64.0955 15.2578V15.2396C64.0955 13.4728 65.3875 12.2264 67.0493 12.2264C68.7111 12.2264 70.0259 13.4728 70.0259 15.2441C70.0259 17.0155 68.7339 18.2618 67.0493 18.2618V18.271Z" fill="white"></path><path d="M126.111 20.9496H124.385C124.061 20.9496 123.796 20.6848 123.796 20.3607V15.1836C123.796 12.0837 126.307 9.57275 129.407 9.57275H129.645C129.969 9.57275 130.234 9.83754 130.234 10.1617V11.8874C130.234 12.2115 129.969 12.4763 129.645 12.4763H129.407C127.91 12.4763 126.695 13.6907 126.695 15.1881V20.3653C126.695 20.6894 126.431 20.9542 126.106 20.9542L126.111 20.9496Z" fill="white"></path><path d="M57.033 17.2697C56.8001 17.1464 56.5125 17.1967 56.3299 17.3884C55.7957 17.9454 55.047 18.2741 54.1842 18.2741C52.9972 18.2741 52.0019 17.6395 51.5271 16.6306C51.3947 16.3521 51.591 16.0279 51.8969 16.0279H59.2061C59.6306 16.0279 59.9776 15.681 59.9776 15.2564C59.9776 11.9967 57.3936 9.4812 54.1796 9.4812C50.9656 9.4812 48.4044 11.9967 48.4044 15.2564C48.4044 18.516 50.9656 21.0316 54.1796 21.0316C56.0012 21.0316 57.6128 20.2235 58.6719 18.9315C58.9048 18.6484 58.8043 18.2239 58.4847 18.0549L57.0238 17.2743L57.033 17.2697ZM54.1887 12.2295C55.3666 12.2295 56.3527 12.8413 56.8366 13.8137H51.5591C52.043 12.8413 53.0246 12.2295 54.1842 12.2295H54.1887Z" fill="white"></path><path d="M149 0L149 30" stroke="white" stroke-miterlimit="10"></path><path d="M226.621 23.2612C226.621 25.1604 227.616 26.2469 229.109 26.2469C229.903 26.2469 230.387 25.9319 230.707 25.4343L230.775 26.1146H231.917V20.4535C231.259 20.2252 230.593 20.1385 229.775 20.1385C227.68 20.1385 226.616 21.2707 226.616 23.2612H226.621ZM230.67 24.8226C230.341 25.0737 229.944 25.2289 229.46 25.2289C228.351 25.2289 227.885 24.4162 227.885 23.2612C227.885 21.992 228.483 21.2022 229.775 21.2022C230.127 21.2022 230.41 21.2251 230.67 21.2707V24.8226ZM235.541 20.1385C234.943 20.1385 234.071 20.2618 233.277 20.4535V26.1146H234.523V21.2935C234.861 21.2387 235.213 21.2022 235.509 21.2022C236.756 21.2022 237.048 21.6314 237.048 22.5262V26.1146H238.294V22.3116C238.294 20.942 237.628 20.1385 235.546 20.1385H235.541ZM214.92 20.2846C214.901 19.8691 214.787 19.4628 214.573 19.093L212.687 15.8242C212.541 15.5731 212.445 15.3083 212.39 15.0344L212.313 15.1714C211.847 15.9795 211.847 16.9747 212.313 17.7873L213.824 20.4033C214.29 21.2114 214.29 22.2066 213.824 23.0192L213.746 23.1562C213.692 22.8823 213.591 22.6175 213.45 22.3664L212.066 19.9741L211.185 18.4447C211.039 18.1937 210.943 17.9289 210.888 17.6549L210.811 17.7919C210.345 18.6 210.345 19.5907 210.806 20.3987L212.322 23.0192C212.788 23.8273 212.788 24.8226 212.322 25.6352L212.244 25.7722C212.19 25.4982 212.089 25.2334 211.948 24.9823L210.062 21.7135C209.811 21.2753 209.692 20.7822 209.715 20.2937C207.697 20.8233 206.3 21.9418 206.3 23.2384C206.3 25.0417 208.998 26.5072 212.327 26.5072C215.655 26.5072 218.353 25.0463 218.353 23.2384C218.353 21.9418 216.96 20.8187 214.938 20.2937L214.92 20.2846ZM223.804 21.7455L223.192 21.4853C222.398 21.1474 221.959 20.805 221.959 20.2161C221.959 19.6272 222.411 19.23 223.398 19.23C223.918 19.23 224.644 19.3304 225.256 19.5587C225.37 19.23 225.447 18.8785 225.484 18.4265C224.84 18.1982 224.146 18.0978 223.411 18.0978C221.576 18.0978 220.686 18.9241 220.686 20.2161C220.686 21.4168 221.412 22.0149 222.475 22.4805L223.051 22.7316C224.114 23.1973 224.543 23.5032 224.543 24.156C224.543 24.8089 223.955 25.165 222.905 25.165C222.284 25.165 221.466 25.0189 220.832 24.7221C220.709 25.0828 220.64 25.4024 220.617 25.8635C221.252 26.1556 222.01 26.2926 222.936 26.2926C224.858 26.2926 225.845 25.3978 225.845 24.0967C225.845 23.001 225.247 22.3527 223.808 21.7409L223.804 21.7455ZM259.875 20.2298C259.583 20.175 259.277 20.1385 258.948 20.1385C256.853 20.1385 255.789 21.2707 255.789 23.2612C255.789 25.2517 256.784 26.2469 258.277 26.2469C259.094 26.2469 259.578 25.9182 259.898 25.3887L259.966 26.1146H261.107V18.1937C260.701 18.1937 260.258 18.2256 259.875 18.3626V20.2298ZM259.875 24.7997C259.537 25.06 259.126 25.2289 258.628 25.2289C257.519 25.2289 257.053 24.4162 257.053 23.2612C257.053 21.9692 257.642 21.2022 258.875 21.2022C259.204 21.2022 259.542 21.2479 259.87 21.3164V24.8043L259.875 24.7997ZM264.888 20.1385C262.906 20.1385 262.126 21.4761 262.126 23.1608C262.126 25.0965 263.134 26.2515 265.216 26.2515C265.883 26.2515 266.485 26.1511 267.052 25.8909C267.129 25.5165 267.198 25.0873 267.243 24.7586C266.622 25.0417 265.928 25.1878 265.253 25.1878C264.143 25.1878 263.554 24.6993 263.395 23.6949H267.367C267.412 23.3662 267.435 23.0832 267.435 22.7316C267.435 21.3072 266.663 20.1385 264.888 20.1385ZM263.372 22.6494C263.472 21.6862 263.938 21.1794 264.819 21.1794C265.7 21.1794 266.175 21.7227 266.175 22.6494H263.367H263.372ZM270.64 20.1385C269.937 20.1385 269.042 20.2755 268.512 20.4535V26.1146H269.759V21.2707C270.065 21.2251 270.371 21.2022 270.676 21.2022C271.028 21.2022 271.32 21.2114 271.617 21.2479C271.685 21.0105 271.731 20.5585 271.731 20.1841C271.457 20.1522 271.028 20.1385 270.645 20.1385H270.64ZM242.636 21.394C242.691 21.0653 242.727 20.7137 242.75 20.3302H240.782V18.1891C240.399 18.1891 239.924 18.2439 239.536 18.3717V24.3158C239.536 25.6945 240.308 26.2515 241.517 26.2515C241.869 26.2515 242.23 26.2059 242.572 26.0689C242.641 25.7402 242.686 25.3567 242.718 25.0143C242.449 25.1147 242.106 25.1832 241.746 25.1832C241.148 25.1832 240.782 24.9002 240.782 24.1651V21.394H242.641H242.636ZM252.041 20.1385C251.443 20.1385 250.571 20.2618 249.776 20.4535V26.1146H251.023V21.2935C251.36 21.2387 251.712 21.2022 252.009 21.2022C253.255 21.2022 253.547 21.6314 253.547 22.5262V26.1146H254.794V22.3116C254.794 20.942 254.127 20.1385 252.045 20.1385H252.041ZM243.124 23.2612C243.124 25.1604 244.12 26.2469 245.613 26.2469C246.407 26.2469 246.891 25.9319 247.21 25.4343L247.279 26.1146H248.42V20.4535C247.763 20.2252 247.096 20.1385 246.279 20.1385C244.184 20.1385 243.12 21.2707 243.12 23.2612H243.124ZM247.174 24.8226C246.845 25.0737 246.448 25.2289 245.964 25.2289C244.855 25.2289 244.389 24.4162 244.389 23.2612C244.389 21.992 244.987 21.2022 246.279 21.2022C246.631 21.2022 246.914 21.2251 247.174 21.2707V24.8226Z" fill="white"></path><path d="M157.803 20.4759V17.1338H158.778V20.4023C158.778 20.8867 159.035 21.2486 159.704 21.2486C160.372 21.2486 160.63 20.8867 160.63 20.4023V17.1338H161.611V20.4759C161.611 21.549 160.802 22.1991 159.71 22.1991C158.618 22.1991 157.815 21.5429 157.815 20.4759H157.803Z" fill="white"></path><path d="M167.705 19.9117V22.1009H166.792V19.9791C166.792 19.5621 166.577 19.3046 166.197 19.3046C165.792 19.3046 165.535 19.5744 165.535 20.1079V22.1009H164.621V19.9791C164.621 19.5621 164.406 19.3046 164.026 19.3046C163.646 19.3046 163.358 19.5744 163.358 20.1079V22.1009H162.444V18.5503H163.358V18.9244C163.554 18.6239 163.891 18.446 164.345 18.446C164.799 18.446 165.112 18.63 165.314 18.955C165.535 18.6361 165.89 18.446 166.375 18.446C167.184 18.446 167.718 19.0225 167.718 19.9117H167.705Z" fill="white"></path><path d="M172.096 18.5498V22.1004H171.182V21.6834C170.925 22.0023 170.545 22.2046 170.023 22.2046C169.079 22.2046 168.3 21.389 168.3 20.3281C168.3 19.2673 169.079 18.4517 170.023 18.4517C170.545 18.4517 170.925 18.6479 171.182 18.9729V18.5559H172.096V18.5498ZM171.182 20.322C171.182 19.7272 170.765 19.3224 170.195 19.3224C169.625 19.3224 169.214 19.7272 169.214 20.322C169.214 20.9168 169.631 21.3216 170.195 21.3216C170.759 21.3216 171.182 20.9168 171.182 20.322Z" fill="white"></path><path d="M176.48 21.3646C176.836 21.3646 177.118 21.2174 177.277 21.0089L178.013 21.432C177.682 21.9165 177.149 22.1924 176.468 22.1924C175.272 22.1924 174.524 21.3768 174.524 20.3159C174.524 19.255 175.284 18.4395 176.4 18.4395C177.449 18.4395 178.197 19.2673 178.197 20.3159C178.197 20.4508 178.185 20.5735 178.16 20.69H175.481C175.609 21.1561 176.002 21.3584 176.48 21.3584V21.3646ZM177.271 19.9909C177.155 19.4819 176.774 19.2734 176.388 19.2734C175.898 19.2734 175.566 19.5371 175.456 19.9909H177.265H177.271Z" fill="white"></path><path d="M184.097 19.9117V22.1009H183.183V19.9791C183.183 19.5621 182.968 19.3046 182.588 19.3046C182.183 19.3046 181.926 19.5744 181.926 20.1079V22.1009H181.012V19.9791C181.012 19.5621 180.797 19.3046 180.417 19.3046C180.037 19.3046 179.749 19.5744 179.749 20.1079V22.1009H178.835V18.5503H179.749V18.9244C179.945 18.6239 180.282 18.446 180.736 18.446C181.19 18.446 181.503 18.63 181.705 18.955C181.926 18.6361 182.281 18.446 182.766 18.446C183.575 18.446 184.109 19.0225 184.109 19.9117H184.097Z" fill="white"></path><path d="M188.678 20.3221C188.678 21.3829 187.899 22.1985 186.942 22.1985C186.421 22.1985 186.047 22.0084 185.79 21.6773V23.517H184.876V18.5437H185.79V18.9607C186.047 18.6357 186.421 18.4395 186.942 18.4395C187.893 18.4395 188.678 19.255 188.678 20.3159V20.3221ZM187.758 20.3221C187.758 19.7272 187.341 19.3225 186.771 19.3225C186.2 19.3225 185.79 19.7272 185.79 20.3221C185.79 20.9169 186.207 21.3216 186.771 21.3216C187.335 21.3216 187.758 20.9169 187.758 20.3221Z" fill="white"></path><path d="M191.315 18.4756V19.4997C190.836 19.4445 190.235 19.653 190.235 20.4011V22.0998H189.322V18.5492H190.235V19.1624C190.419 18.678 190.867 18.4817 191.315 18.4817V18.4756Z" fill="white"></path><path d="M193.486 21.3646C193.841 21.3646 194.123 21.2174 194.283 21.0089L195.019 21.432C194.688 21.9165 194.154 22.1924 193.473 22.1924C192.278 22.1924 191.53 21.3768 191.53 20.3159C191.53 19.255 192.29 18.4395 193.406 18.4395C194.455 18.4395 195.203 19.2673 195.203 20.3159C195.203 20.4508 195.191 20.5735 195.166 20.69H192.486C192.615 21.1561 193.007 21.3584 193.486 21.3584V21.3646ZM194.283 19.9909C194.166 19.4819 193.786 19.2734 193.4 19.2734C192.909 19.2734 192.578 19.5371 192.468 19.9909H194.277H194.283Z" fill="white"></path><path d="M198.373 21.0645C198.373 21.8311 197.704 22.199 196.944 22.199C196.232 22.199 195.705 21.8985 195.454 21.3527L196.251 20.9051C196.349 21.1933 196.594 21.365 196.95 21.365C197.238 21.365 197.44 21.2669 197.44 21.0584C197.44 20.5372 195.607 20.8254 195.607 19.5744C195.607 18.8508 196.226 18.446 196.956 18.446C197.532 18.446 198.029 18.7097 198.305 19.2003L197.526 19.6234C197.422 19.3966 197.22 19.2616 196.956 19.2616C196.729 19.2616 196.545 19.3598 196.545 19.5499C196.545 20.0772 198.379 19.7461 198.379 21.0584L198.373 21.0645Z" fill="white"></path><path d="M202.525 18.5498V22.1004H201.611V21.6834C201.353 22.0023 200.973 22.2046 200.452 22.2046C199.508 22.2046 198.729 21.389 198.729 20.3281C198.729 19.2673 199.508 18.4517 200.452 18.4517C200.973 18.4517 201.353 18.6479 201.611 18.9729V18.5559H202.525V18.5498ZM201.611 20.322C201.611 19.7272 201.194 19.3224 200.624 19.3224C200.053 19.3224 199.642 19.7272 199.642 20.322C199.642 20.9168 200.059 21.3216 200.624 21.3216C201.188 21.3216 201.611 20.9168 201.611 20.322Z" fill="white"></path><path d="M161.598 26.8663C161.598 27.9271 160.819 28.7427 159.862 28.7427C159.341 28.7427 158.967 28.5526 158.709 28.2215V30.0612H157.796V25.0879H158.709V25.5049C158.967 25.1799 159.341 24.9836 159.862 24.9836C160.813 24.9836 161.598 25.7992 161.598 26.8601V26.8663ZM160.684 26.8663C160.684 26.2714 160.267 25.8667 159.697 25.8667C159.126 25.8667 158.715 26.2714 158.715 26.8663C158.715 27.4611 159.132 27.8658 159.697 27.8658C160.261 27.8658 160.684 27.4611 160.684 26.8663Z" fill="white"></path><path d="M165.86 25.0884V28.6389H164.946V28.2219C164.689 28.5408 164.308 28.7432 163.787 28.7432C162.843 28.7432 162.064 27.9276 162.064 26.8667C162.064 25.8058 162.843 24.9902 163.787 24.9902C164.308 24.9902 164.689 25.1865 164.946 25.5115V25.0945H165.86V25.0884ZM164.94 26.8667C164.94 26.2719 164.523 25.8672 163.953 25.8672C163.382 25.8672 162.972 26.2719 162.972 26.8667C162.972 27.4615 163.389 27.8663 163.953 27.8663C164.517 27.8663 164.94 27.4615 164.94 26.8667Z" fill="white"></path><path d="M168.688 25.0125V26.0365C168.209 25.9814 167.609 26.1898 167.609 26.938V28.6366H166.695V25.086H167.609V25.6993C167.792 25.2148 168.24 25.0186 168.688 25.0186V25.0125Z" fill="white"></path><path d="M168.895 26.8667C168.895 25.8058 169.692 24.9902 170.771 24.9902C171.47 24.9902 172.071 25.3582 172.36 25.9039L171.568 26.3639C171.427 26.0756 171.121 25.8855 170.759 25.8855C170.213 25.8855 169.809 26.2903 169.809 26.8606C169.809 27.4309 170.213 27.8233 170.759 27.8233C171.127 27.8233 171.434 27.6455 171.575 27.3573L172.372 27.8111C172.065 28.363 171.464 28.7371 170.765 28.7371C169.686 28.7371 168.889 27.9215 168.889 26.8606L168.895 26.8667Z" fill="white"></path><path d="M174.574 27.9087C174.929 27.9087 175.211 27.7616 175.371 27.5531L176.107 27.9762C175.776 28.4606 175.242 28.7366 174.561 28.7366C173.366 28.7366 172.617 27.921 172.617 26.8601C172.617 25.7992 173.378 24.9836 174.494 24.9836C175.543 24.9836 176.291 25.8115 176.291 26.8601C176.291 26.995 176.278 27.1177 176.254 27.2342H173.574C173.703 27.7002 174.095 27.9026 174.574 27.9026V27.9087ZM175.371 26.529C175.254 26.02 174.874 25.8115 174.488 25.8115C173.997 25.8115 173.666 26.0752 173.556 26.529H175.365H175.371Z" fill="white"></path><path d="M176.819 24.0991C176.819 23.7925 177.076 23.5288 177.383 23.5288C177.689 23.5288 177.953 23.7925 177.953 24.0991C177.953 24.4057 177.696 24.6633 177.383 24.6633C177.07 24.6633 176.819 24.4057 176.819 24.0991ZM176.923 25.0864H177.837V28.637H176.923V25.0864Z" fill="white"></path><path d="M180.675 25.0125V26.0365C180.197 25.9814 179.596 26.1898 179.596 26.938V28.6366H178.682V25.086H179.596V25.6993C179.78 25.2148 180.228 25.0186 180.675 25.0186V25.0125Z" fill="white"></path><path d="M184.686 25.0884V28.6389H183.772V28.2219C183.515 28.5408 183.135 28.7432 182.613 28.7432C181.669 28.7432 180.89 27.9276 180.89 26.8667C180.89 25.8058 181.669 24.9902 182.613 24.9902C183.135 24.9902 183.515 25.1865 183.772 25.5115V25.0945H184.686V25.0884ZM183.766 26.8667C183.766 26.2719 183.349 25.8672 182.779 25.8672C182.209 25.8672 181.798 26.2719 181.798 26.8667C181.798 27.4615 182.215 27.8663 182.779 27.8663C183.343 27.8663 183.766 27.4615 183.766 26.8667Z" fill="white"></path><path d="M157.793 6.13533V2.79272H158.768V6.06173C158.768 6.54625 159.025 6.90811 159.694 6.90811C160.362 6.90811 160.62 6.54625 160.62 6.06173V2.79272H161.601V6.13533C161.601 7.20864 160.792 7.85876 159.7 7.85876C158.608 7.85876 157.805 7.20251 157.805 6.13533H157.793Z" fill="white"></path><path d="M167.698 5.5696V7.75916H166.784V5.63706C166.784 5.22001 166.569 4.96241 166.189 4.96241C165.784 4.96241 165.526 5.23227 165.526 5.76586V7.75916H164.613V5.63706C164.613 5.22001 164.398 4.96241 164.018 4.96241C163.637 4.96241 163.349 5.23227 163.349 5.76586V7.75916H162.435V4.20802H163.349V4.58215C163.545 4.28162 163.883 4.10376 164.337 4.10376C164.79 4.10376 165.103 4.28776 165.306 4.61282C165.526 4.29389 165.882 4.10376 166.367 4.10376C167.176 4.10376 167.71 4.68028 167.71 5.5696H167.698Z" fill="white"></path><path d="M172.095 4.20873V7.75986H171.181V7.3428C170.923 7.66173 170.543 7.86413 170.022 7.86413C169.077 7.86413 168.298 7.04841 168.298 5.98736C168.298 4.92631 169.077 4.1106 170.022 4.1106C170.543 4.1106 170.923 4.30686 171.181 4.63192V4.21486H172.095V4.20873ZM171.175 5.98123C171.175 5.3863 170.758 4.98151 170.187 4.98151C169.617 4.98151 169.206 5.3863 169.206 5.98123C169.206 6.57615 169.623 6.98094 170.187 6.98094C170.752 6.98094 171.175 6.57615 171.175 5.98123Z" fill="white"></path><path d="M176.474 7.0293C176.83 7.0293 177.112 6.88211 177.272 6.67358L178.008 7.09677C177.676 7.58129 177.143 7.85729 176.462 7.85729C175.266 7.85729 174.518 7.04157 174.518 5.98052C174.518 4.91948 175.278 4.10376 176.395 4.10376C177.443 4.10376 178.192 4.93174 178.192 5.98052C178.192 6.11545 178.179 6.23812 178.155 6.35465H175.475C175.603 6.82078 175.996 7.02317 176.474 7.02317V7.0293ZM177.266 5.64933C177.149 5.14027 176.769 4.93174 176.382 4.93174C175.892 4.93174 175.56 5.19547 175.45 5.64933H177.259H177.266Z" fill="white"></path><path d="M184.091 5.5696V7.75916H183.177V5.63706C183.177 5.22001 182.962 4.96241 182.582 4.96241C182.177 4.96241 181.92 5.23227 181.92 5.76586V7.75916H181.006V5.63706C181.006 5.22001 180.791 4.96241 180.411 4.96241C180.031 4.96241 179.742 5.23227 179.742 5.76586V7.75916H178.829V4.20802H179.742V4.58215C179.939 4.28162 180.276 4.10376 180.73 4.10376C181.184 4.10376 181.497 4.28776 181.699 4.61282C181.92 4.29389 182.275 4.10376 182.76 4.10376C183.57 4.10376 184.103 4.68028 184.103 5.5696H184.091Z" fill="white"></path><path d="M188.673 5.98031C188.673 7.04136 187.894 7.85707 186.937 7.85707C186.416 7.85707 186.042 7.66694 185.784 7.33575V9.17572H184.87V4.20168H185.784V4.61874C186.042 4.29368 186.416 4.09741 186.937 4.09741C187.888 4.09741 188.673 4.91313 188.673 5.97418V5.98031ZM187.753 5.98031C187.753 5.38539 187.336 4.9806 186.766 4.9806C186.195 4.9806 185.784 5.38539 185.784 5.98031C185.784 6.57523 186.201 6.98002 186.766 6.98002C187.33 6.98002 187.753 6.57523 187.753 5.98031Z" fill="white"></path><path d="M191.311 4.13477V5.15901C190.833 5.10381 190.231 5.31234 190.231 6.0606V7.7595H189.318V4.20836H190.231V4.82169C190.415 4.33716 190.863 4.1409 191.311 4.1409V4.13477Z" fill="white"></path><path d="M193.482 7.0293C193.838 7.0293 194.12 6.88211 194.28 6.67358L195.016 7.09677C194.684 7.58129 194.151 7.85729 193.47 7.85729C192.274 7.85729 191.526 7.04157 191.526 5.98052C191.526 4.91948 192.286 4.10376 193.403 4.10376C194.451 4.10376 195.2 4.93174 195.2 5.98052C195.2 6.11545 195.187 6.23812 195.163 6.35465H192.483C192.611 6.82078 193.004 7.02317 193.482 7.02317V7.0293ZM194.28 5.64933C194.163 5.14027 193.783 4.93174 193.396 4.93174C192.906 4.93174 192.575 5.19547 192.464 5.64933H194.273H194.28Z" fill="white"></path><path d="M198.369 6.72264C198.369 7.4893 197.701 7.85729 196.94 7.85729C196.229 7.85729 195.701 7.55676 195.45 7.0109L196.247 6.56318C196.345 6.85144 196.591 7.02317 196.946 7.02317C197.235 7.02317 197.437 6.92504 197.437 6.71651C197.437 6.19519 195.603 6.48345 195.603 5.23227C195.603 4.50855 196.223 4.10376 196.952 4.10376C197.529 4.10376 198.026 4.36749 198.302 4.85815L197.523 5.28747C197.419 5.06054 197.216 4.92561 196.952 4.92561C196.726 4.92561 196.542 5.02374 196.542 5.21387C196.542 5.74133 198.375 5.41013 198.375 6.72264H198.369Z" fill="white"></path><path d="M202.522 4.20873V7.75986H201.608V7.3428C201.35 7.66173 200.97 7.86413 200.449 7.86413C199.504 7.86413 198.725 7.04841 198.725 5.98736C198.725 4.92631 199.504 4.1106 200.449 4.1106C200.97 4.1106 201.35 4.30686 201.608 4.63192V4.21486H202.522V4.20873ZM201.608 5.98123C201.608 5.3863 201.191 4.98151 200.621 4.98151C200.05 4.98151 199.639 5.3863 199.639 5.98123C199.639 6.57615 200.056 6.98094 200.621 6.98094C201.185 6.98094 201.608 6.57615 201.608 5.98123Z" fill="white"></path><path d="M210.757 9.46426C209.424 9.46426 208.282 9.00316 207.342 8.09466C206.41 7.19071 205.927 6.0722 205.927 4.7802C205.927 3.48821 206.397 2.36969 207.342 1.45662C208.273 0.543548 209.424 0.0778809 210.757 0.0778809C211.697 0.0778809 212.578 0.333541 213.359 0.822035C214.14 1.31053 214.738 1.97251 215.126 2.77144L215.19 2.89927H213.569L213.542 2.86275C213.236 2.42904 212.825 2.08207 212.336 1.83098C211.848 1.57988 211.314 1.45205 210.752 1.45205C209.812 1.45205 209.004 1.7762 208.342 2.42904C207.68 3.07276 207.346 3.8717 207.346 4.77564C207.346 5.67958 207.68 6.47852 208.351 7.12223C209.013 7.76595 209.83 8.09009 210.761 8.09009C211.323 8.09009 211.857 7.96226 212.345 7.71116C212.834 7.4555 213.24 7.1131 213.551 6.67939L213.578 6.64287H215.199L215.135 6.7707C214.747 7.57877 214.149 8.23162 213.368 8.72011C212.587 9.2086 211.711 9.46426 210.766 9.46426L210.757 9.47339V9.46426Z" fill="white"></path><path d="M222.298 9.46451L221.33 7.00834H217.495L216.527 9.46451H215.007L218.728 0.078125H220.088L223.814 9.46451H222.294H222.303H222.298ZM220.696 5.6433L219.326 2.20102L217.956 5.6433H220.691H220.696Z" fill="white"></path><path d="M229.584 9.46451L227.936 5.867H226.032V9.46451H224.617V0.078125H228.406C229.223 0.078125 229.935 0.370308 230.515 0.931847C231.095 1.49339 231.396 2.18276 231.396 2.98169C231.396 3.60715 231.196 4.18695 230.807 4.6937C230.438 5.17307 229.963 5.52003 229.401 5.70721L231.122 9.45994H229.575L229.584 9.46907V9.46451ZM228.406 4.50196C228.84 4.50196 229.205 4.35587 229.52 4.04999C229.826 3.75324 229.981 3.38801 229.981 2.98169C229.981 2.57538 229.826 2.20102 229.52 1.90427C229.214 1.60752 228.849 1.4523 228.406 1.4523H226.032V4.49739H228.406V4.50652V4.50196Z" fill="white"></path><path d="M239.253 9.46451C237.92 9.46451 236.779 9.0034 235.839 8.0949C234.907 7.19096 234.423 6.07244 234.423 4.78045C234.423 3.48845 234.894 2.36994 235.839 1.45686C236.77 0.543792 237.92 0.078125 239.253 0.078125C240.249 0.078125 241.166 0.352047 241.979 0.895325C242.787 1.4386 243.385 2.15536 243.746 3.02278L243.801 3.14148H242.244L242.216 3.09583C241.911 2.5982 241.491 2.20102 240.966 1.89057C240.45 1.59382 239.87 1.4386 239.253 1.4386C238.313 1.4386 237.505 1.76274 236.843 2.41559C236.181 3.05931 235.848 3.85824 235.848 4.76219C235.848 5.66613 236.181 6.46506 236.843 7.10878C237.505 7.7525 238.322 8.07664 239.253 8.07664C239.934 8.07664 240.568 7.89402 241.13 7.53336C241.655 7.20009 242.052 6.75268 242.326 6.21853H239.162V4.84893H244.084V4.94023C244.029 6.19114 243.54 7.26857 242.604 8.14055C241.682 9.01254 240.545 9.45537 239.253 9.45537V9.46451Z" fill="white"></path><path d="M245.006 9.46429V5.77548C245.006 4.76197 245.376 3.88086 246.111 3.16409C246.846 2.44733 247.75 2.08667 248.791 2.08667H248.882V3.45628H248.791C248.138 3.45628 247.567 3.68455 247.115 4.13652C246.654 4.58849 246.417 5.1409 246.417 5.77548V9.46429H245.001H245.006Z" fill="white"></path><path d="M252.726 9.46429C251.685 9.46429 250.777 9.10363 250.046 8.38687C249.302 7.67011 248.932 6.79356 248.932 5.77548C248.932 4.75741 249.302 3.88086 250.046 3.16409C250.79 2.44733 251.685 2.08667 252.726 2.08667C253.767 2.08667 254.675 2.44733 255.406 3.16409C256.15 3.88086 256.52 4.75741 256.52 5.77548C256.52 6.79356 256.15 7.67011 255.406 8.38687C254.662 9.10363 253.767 9.46429 252.726 9.46429ZM252.726 3.46084C252.073 3.46084 251.503 3.68911 251.041 4.14108C250.58 4.59305 250.343 5.14546 250.343 5.78005C250.343 6.41463 250.58 6.96704 251.041 7.40988C251.503 7.85272 252.073 8.09012 252.726 8.09012C253.379 8.09012 253.95 7.86185 254.411 7.40988C254.872 6.96704 255.109 6.41463 255.109 5.78005C255.109 5.14546 254.872 4.59305 254.411 4.14108C253.95 3.68911 253.379 3.46084 252.726 3.46084Z" fill="white"></path><path d="M260.3 9.46373C259.482 9.46373 258.779 9.17155 258.2 8.60088C257.62 8.03021 257.318 7.34997 257.318 6.56929V2.08154H258.734V6.57386C258.734 6.98017 258.889 7.3454 259.195 7.63302C259.501 7.92977 259.875 8.07586 260.291 8.07586C260.706 8.07586 261.089 7.92977 261.386 7.63302C261.692 7.34084 261.847 6.98017 261.847 6.57386V2.08154H263.263V6.57386C263.263 7.36366 262.97 8.05303 262.381 8.61457C261.802 9.17611 261.094 9.4683 260.281 9.4683H260.3V9.46373Z" fill="white"></path><path d="M264.208 12.3034V5.76122C264.208 4.74771 264.578 3.8666 265.322 3.15897C266.066 2.44221 266.961 2.08154 268.002 2.08154C269.043 2.08154 269.952 2.44221 270.682 3.15897C271.426 3.87573 271.796 4.75228 271.796 5.76122C271.796 6.77017 271.426 7.66498 270.682 8.38174C269.938 9.0985 269.043 9.45917 268.002 9.45917C267.107 9.45917 266.299 9.18524 265.619 8.64197V12.3034H264.204H264.208ZM268.002 3.46028C267.349 3.46028 266.779 3.68855 266.317 4.13139C265.856 4.57423 265.619 5.12664 265.619 5.76122C265.619 6.39581 265.856 6.94822 266.317 7.40019C266.779 7.85216 267.349 8.08043 268.002 8.08043C268.655 8.08043 269.226 7.85216 269.687 7.40019C270.148 6.94822 270.385 6.39581 270.385 5.76122C270.385 5.12664 270.148 4.57423 269.687 4.13139C269.226 3.68855 268.655 3.46028 268.002 3.46028Z" fill="white"></path>
</svg>