<?xml version="1.0" encoding="UTF-8"?>
<svg width="763px" height="146px" viewBox="0 0 763 146" version="1.1" xmlns="http://www.w3.org/2000/svg" xmlns:xlink="http://www.w3.org/1999/xlink">
    <title>logo-webmotors</title>
    <desc>Created with Sketch.</desc>
    <g id="Page-1" stroke="none" stroke-width="1" fill="none" fill-rule="evenodd">
        <g id="logo-webmotors" transform="translate(-613.000000, -481.000000)">
            <g id="logo">
                <g id="Group" transform="translate(617.000000, 482.000000)">
                    <g>
                        <g id="XMLID_2_" fill="#EC0928">
                            <circle id="Oval" cx="72.55" cy="72.33" r="72.03"></circle>
                        </g>
                        <path d="M112.68,97.2 C112.68,100.59 109.84,103.31 106.42,103.13 C103.21,102.96 100.8,100.08 100.8,96.86 L100.8,81.43 C100.8,79.69 99.39,78.27 97.64,78.27 L81.66,78.27 C79.92,78.27 78.5,79.68 78.5,81.43 L78.5,100.65 C78.5,104.04 75.66,106.76 72.24,106.58 C69.03,106.41 66.62,103.53 66.62,100.31 L66.62,81.42 C66.62,79.68 65.21,78.26 63.46,78.26 L47.48,78.26 C45.74,78.26 44.32,79.67 44.32,81.42 L44.32,97.18 C44.32,100.57 41.48,103.29 38.06,103.11 C34.85,102.94 32.44,100.06 32.44,96.84 L32.44,47.44 C32.44,44.05 35.27,41.33 38.7,41.51 C41.91,41.68 44.32,44.56 44.32,47.78 L44.32,63.21 C44.32,64.95 45.73,66.37 47.48,66.37 L63.46,66.37 C65.2,66.37 66.62,64.96 66.62,63.21 L66.62,44 C66.62,40.61 69.46,37.89 72.88,38.07 C76.09,38.24 78.5,41.12 78.5,44.34 L78.5,63.23 C78.5,64.97 79.91,66.39 81.66,66.39 L97.64,66.39 C99.38,66.39 100.8,64.98 100.8,63.23 L100.8,47.8 C100.8,44.58 103.21,41.7 106.42,41.53 C109.85,41.35 112.68,44.08 112.68,47.46 L112.68,97.2 Z" id="Path" fill="#FFFFFF"></path>
                    </g>
                    <g transform="translate(167.000000, 19.000000)" fill="#171717" fill-rule="nonzero">
                        <g>
                            <g>
                                <path d="M406.8,4.91 L397.92,4.91 C396.18,4.91 394.76,6.32 394.76,8.07 L394.76,23.93 L394.76,38.54 L394.76,63.04 C394.76,78.18 401.28,84.57 420.3,83.11 C421.96,82.98 423.26,81.62 423.26,79.95 L423.26,72.35 C423.26,70.56 421.77,69.14 419.98,69.19 C413.39,69.37 409.95,68.55 409.95,63.04 L409.95,36.7 L420.1,36.7 C421.84,36.7 423.26,35.29 423.26,33.54 L423.26,25.25 C423.26,23.51 421.85,22.09 420.1,22.09 L409.95,22.09 L409.95,8.07 C409.96,6.33 408.54,4.91 406.8,4.91 Z" id="Path"></path>
                                <path d="M355.14,21.53 C337.82,21.53 324.04,35.08 324.04,52.63 C324.04,70.18 337.82,83.73 355.14,83.73 C372.46,83.73 386.36,70.18 386.36,52.63 C386.36,35.08 372.46,21.53 355.14,21.53 Z M355.14,68.88 C346.19,68.88 339.24,62.17 339.24,52.62 C339.24,43.08 346.19,36.36 355.14,36.36 C364.21,36.36 371.16,43.07 371.16,52.62 C371.16,62.17 364.21,68.88 355.14,68.88 Z" id="Shape"></path>
                                <path d="M459.54,21.53 C442.22,21.53 428.44,35.08 428.44,52.63 C428.44,70.18 442.22,83.73 459.54,83.73 C476.86,83.73 490.76,70.18 490.76,52.63 C490.76,35.08 476.86,21.53 459.54,21.53 Z M459.54,68.88 C450.59,68.88 443.64,62.17 443.64,52.62 C443.64,43.08 450.59,36.36 459.54,36.36 C468.61,36.36 475.56,43.07 475.56,52.62 C475.56,62.17 468.61,68.88 459.54,68.88 Z" id="Shape"></path>
                                <path d="M70.7,57.96 C70.7,63.7 65.75,68.31 59.9,67.74 C54.8,67.24 51.06,62.65 51.06,57.52 L51.06,25.25 C51.06,23.51 49.65,22.09 47.9,22.09 L38.61,22.09 C36.87,22.09 35.45,23.5 35.45,25.25 L35.45,57.52 C35.45,62.65 31.71,67.24 26.61,67.74 C20.75,68.31 15.81,63.7 15.81,57.96 L15.81,25.25 C15.81,23.51 14.4,22.09 12.65,22.09 L3.36,22.09 C1.62,22.09 0.2,23.5 0.2,25.25 L0.2,57.16 C0.2,70.56 10.22,82.25 23.58,83.31 C31.23,83.92 38.23,81.1 43.26,76.25 C48.29,81.1 55.29,83.92 62.94,83.31 C76.29,82.25 86.32,70.55 86.32,57.16 L86.32,25.25 C86.32,23.51 84.91,22.09 83.16,22.09 L73.87,22.09 C72.13,22.09 70.71,23.5 70.71,25.25 L70.71,57.96 L70.7,57.96 Z" id="Path"></path>
                                <path d="M293.78,22.09 C286.13,21.48 279.13,24.3 274.1,29.15 C269.07,24.3 262.07,21.48 254.42,22.09 C241.07,23.15 231.04,34.85 231.04,48.24 L231.04,80.15 C231.04,81.89 232.45,83.31 234.2,83.31 L243.49,83.31 C245.23,83.31 246.65,81.9 246.65,80.15 L246.65,47.88 C246.65,42.75 250.39,38.17 255.49,37.67 C261.35,37.1 266.3,41.7 266.3,47.45 L266.3,80.16 C266.3,81.9 267.71,83.32 269.46,83.32 L278.75,83.32 C280.49,83.32 281.91,81.91 281.91,80.16 L281.91,47.89 C281.91,42.76 285.65,38.17 290.75,37.67 C296.61,37.1 301.55,41.71 301.55,47.45 L301.55,80.16 C301.55,81.9 302.96,83.32 304.71,83.32 L314,83.32 C315.74,83.32 317.16,81.91 317.16,80.16 L317.16,48.25 C317.16,34.85 307.14,23.15 293.78,22.09 Z" id="Path"></path>
                                <path d="M553.87,39.91 C553.87,36.73 556.93,35.08 560.7,35.08 C563.76,35.08 566.29,36.19 568.14,38.16 C569.04,39.11 570.62,39.48 571.77,38.86 L579.28,34.84 C581.1,33.87 581.48,31.46 580.12,29.91 C575.35,24.45 568.47,21.53 560.71,21.53 C548.58,21.53 538.33,28.24 538.33,40.26 C538.33,60.99 568.72,56.28 568.72,64.88 C568.72,68.3 565.42,69.94 560.59,69.94 C556.16,69.94 552.82,68.33 550.73,65.47 C549.85,64.26 548.18,63.76 546.86,64.46 L539.03,68.65 C537.37,69.54 536.79,71.59 537.86,73.14 C542.55,80 550.42,83.71 560.6,83.71 C573.2,83.71 584.28,77.59 584.28,64.86 C584.26,43.2 553.87,48.62 553.87,39.91 Z" id="Path"></path>
                                <path d="M193.35,21.53 C187.51,21.53 182.09,23.1 177.45,25.81 L177.45,3.22 C177.45,1.48 176.04,0.06 174.29,0.06 L165.41,0.06 C163.67,0.06 162.25,1.47 162.25,3.22 L162.25,52.82 L162.26,52.82 C162.37,70.27 176.1,83.71 193.35,83.71 C210.67,83.71 224.57,70.16 224.57,52.61 C224.57,35.08 210.67,21.53 193.35,21.53 Z M193.35,68.88 C184.41,68.88 177.48,62.19 177.45,52.67 L177.45,52.58 C177.47,43.06 184.41,36.37 193.35,36.37 C202.42,36.37 209.37,43.08 209.37,52.63 C209.38,62.17 202.43,68.88 193.35,68.88 Z" id="Shape"></path>
                            </g>
                            <path d="M511.29,83.31 L502,83.31 C500.26,83.31 498.84,81.9 498.84,80.15 L498.84,52.29 C498.84,35.61 512.36,22.09 529.04,22.09 L530.32,22.09 C532.06,22.09 533.48,23.5 533.48,25.25 L533.48,34.54 C533.48,36.28 532.07,37.7 530.32,37.7 L529.03,37.7 C520.97,37.7 514.44,44.23 514.44,52.29 L514.44,80.15 C514.45,81.9 513.04,83.31 511.29,83.31 Z" id="Path"></path>
                        </g>
                        <path d="M139.44,63.49 C138.18,62.82 136.65,63.09 135.66,64.12 C132.79,67.11 128.75,68.88 124.12,68.88 C117.73,68.88 112.37,65.45 109.83,60.02 C109.12,58.52 110.17,56.78 111.83,56.78 L151.17,56.78 C153.46,56.78 155.33,54.91 155.33,52.62 L155.33,52.62 C155.33,35.07 141.43,21.52 124.11,21.52 C106.79,21.52 93.01,35.07 93.01,52.62 C93.01,70.17 106.79,83.72 124.11,83.72 C133.91,83.72 142.59,79.37 148.3,72.42 C149.54,70.91 149.02,68.62 147.29,67.69 L139.44,63.49 Z M124.12,36.37 C130.47,36.37 135.76,39.66 138.38,44.9 L109.98,44.9 C112.59,39.66 117.86,36.37 124.12,36.37 Z" id="Shape"></path>
                    </g>
                </g>
            </g>
        </g>
    </g>
</svg>